<mxfile host="app.diagrams.net" agent="Mozilla/5.0 (Windows NT 10.0; Win64; x64) AppleWebKit/537.36 (KHTML, like Gecko) Chrome/129.0.0.0 Safari/537.36" version="24.8.0">
  <diagram id="C5RBs43oDa-KdzZeNtuy" name="Page-1">
    <mxGraphModel dx="1434" dy="738" grid="0" gridSize="10" guides="1" tooltips="1" connect="1" arrows="1" fold="1" page="1" pageScale="1" pageWidth="1169" pageHeight="827" math="0" shadow="0">
      <root>
        <mxCell id="WIyWlLk6GJQsqaUBKTNV-0" />
        <mxCell id="WIyWlLk6GJQsqaUBKTNV-1" parent="WIyWlLk6GJQsqaUBKTNV-0" />
        <mxCell id="uFyeFTrfsKHOGS0_u5kz-1" value="&lt;font style=&quot;font-size: 18px;&quot;&gt;Item&lt;/font&gt;" style="swimlane;fontStyle=1;align=center;verticalAlign=middle;childLayout=stackLayout;horizontal=1;startSize=26;horizontalStack=0;resizeParent=1;resizeParentMax=0;resizeLast=0;collapsible=1;marginBottom=0;whiteSpace=wrap;html=1;movable=1;resizable=1;rotatable=1;deletable=1;editable=1;locked=0;connectable=1;" vertex="1" parent="WIyWlLk6GJQsqaUBKTNV-1">
          <mxGeometry x="140" y="297" width="361" height="167" as="geometry">
            <mxRectangle x="332" y="335" width="95" height="26" as="alternateBounds" />
          </mxGeometry>
        </mxCell>
        <mxCell id="uFyeFTrfsKHOGS0_u5kz-2" value="- nome : String&lt;div style=&quot;font-size: 15px;&quot;&gt;- preco : float&lt;/div&gt;&lt;div style=&quot;font-size: 15px;&quot;&gt;- quantidade : int&lt;/div&gt;&lt;div style=&quot;font-size: 15px;&quot;&gt;&lt;br style=&quot;font-size: 15px;&quot;&gt;&lt;/div&gt;" style="text;strokeColor=none;fillColor=none;align=left;verticalAlign=top;spacingLeft=4;spacingRight=4;overflow=hidden;rotatable=1;points=[[0,0.5],[1,0.5]];portConstraint=eastwest;whiteSpace=wrap;html=1;movable=1;resizable=1;deletable=1;editable=1;locked=0;connectable=1;fontSize=15;" vertex="1" parent="uFyeFTrfsKHOGS0_u5kz-1">
          <mxGeometry y="26" width="361" height="68" as="geometry" />
        </mxCell>
        <mxCell id="uFyeFTrfsKHOGS0_u5kz-3" value="" style="line;strokeWidth=1;fillColor=none;align=left;verticalAlign=middle;spacingTop=-1;spacingLeft=3;spacingRight=3;rotatable=1;labelPosition=right;points=[];portConstraint=eastwest;strokeColor=inherit;movable=1;resizable=1;deletable=1;editable=1;locked=0;connectable=1;" vertex="1" parent="uFyeFTrfsKHOGS0_u5kz-1">
          <mxGeometry y="94" width="361" height="8" as="geometry" />
        </mxCell>
        <mxCell id="uFyeFTrfsKHOGS0_u5kz-4" value="+ atualizarQuantidade(novaQuantidade: int): void&lt;div style=&quot;font-size: 15px;&quot;&gt;+ calcularTotal(preco: float, quantidade: int): float&lt;br style=&quot;font-size: 15px;&quot;&gt;&lt;/div&gt;" style="text;strokeColor=none;fillColor=none;align=left;verticalAlign=top;spacingLeft=4;spacingRight=4;overflow=hidden;rotatable=1;points=[[0,0.5],[1,0.5]];portConstraint=eastwest;whiteSpace=wrap;html=1;movable=1;resizable=1;deletable=1;editable=1;locked=0;connectable=1;fontSize=15;" vertex="1" parent="uFyeFTrfsKHOGS0_u5kz-1">
          <mxGeometry y="102" width="361" height="65" as="geometry" />
        </mxCell>
        <mxCell id="uFyeFTrfsKHOGS0_u5kz-7" value="Venda" style="swimlane;fontStyle=1;align=center;verticalAlign=top;childLayout=stackLayout;horizontal=1;startSize=26;horizontalStack=0;resizeParent=1;resizeParentMax=0;resizeLast=0;collapsible=1;marginBottom=0;whiteSpace=wrap;html=1;movable=1;resizable=1;rotatable=1;deletable=1;editable=1;locked=0;connectable=1;fontSize=18;" vertex="1" parent="WIyWlLk6GJQsqaUBKTNV-1">
          <mxGeometry x="770" y="297" width="307" height="157" as="geometry">
            <mxRectangle x="332" y="335" width="95" height="26" as="alternateBounds" />
          </mxGeometry>
        </mxCell>
        <mxCell id="uFyeFTrfsKHOGS0_u5kz-8" value="- itens : List&amp;lt;Item&amp;gt;&lt;br style=&quot;font-size: 15px;&quot;&gt;&lt;div style=&quot;font-size: 15px;&quot;&gt;&lt;span style=&quot;background-color: initial; font-size: 15px;&quot;&gt;- data : Date&lt;/span&gt;&lt;/div&gt;&lt;div style=&quot;font-size: 15px;&quot;&gt;- total : float&lt;br style=&quot;font-size: 15px;&quot;&gt;&lt;/div&gt;" style="text;strokeColor=none;fillColor=none;align=left;verticalAlign=middle;spacingLeft=4;spacingRight=4;overflow=hidden;rotatable=1;points=[[0,0.5],[1,0.5]];portConstraint=eastwest;whiteSpace=wrap;html=1;movable=1;resizable=1;deletable=1;editable=1;locked=0;connectable=1;fontSize=15;" vertex="1" parent="uFyeFTrfsKHOGS0_u5kz-7">
          <mxGeometry y="26" width="307" height="64" as="geometry" />
        </mxCell>
        <mxCell id="uFyeFTrfsKHOGS0_u5kz-9" value="" style="line;strokeWidth=1;fillColor=none;align=left;verticalAlign=middle;spacingTop=-1;spacingLeft=3;spacingRight=3;rotatable=1;labelPosition=right;points=[];portConstraint=eastwest;strokeColor=inherit;movable=1;resizable=1;deletable=1;editable=1;locked=0;connectable=1;" vertex="1" parent="uFyeFTrfsKHOGS0_u5kz-7">
          <mxGeometry y="90" width="307" height="8" as="geometry" />
        </mxCell>
        <mxCell id="uFyeFTrfsKHOGS0_u5kz-10" value="&lt;div style=&quot;font-size: 15px;&quot;&gt;+ adicionarItem(item: Item): void&lt;br style=&quot;font-size: 15px;&quot;&gt;&lt;/div&gt;&lt;div style=&quot;font-size: 15px;&quot;&gt;+ calcularTotal(): float&lt;br style=&quot;font-size: 15px;&quot;&gt;&lt;/div&gt;&lt;div style=&quot;font-size: 15px;&quot;&gt;+ finalizarVenda(): boolean&lt;br style=&quot;font-size: 15px;&quot;&gt;&lt;/div&gt;&lt;div style=&quot;font-size: 15px;&quot;&gt;&lt;br style=&quot;font-size: 15px;&quot;&gt;&lt;/div&gt;" style="text;strokeColor=none;fillColor=none;align=left;verticalAlign=middle;spacingLeft=4;spacingRight=4;overflow=hidden;rotatable=1;points=[[0,0.5],[1,0.5]];portConstraint=eastwest;whiteSpace=wrap;html=1;movable=1;resizable=1;deletable=1;editable=1;locked=0;connectable=1;fontSize=15;" vertex="1" parent="uFyeFTrfsKHOGS0_u5kz-7">
          <mxGeometry y="98" width="307" height="59" as="geometry" />
        </mxCell>
        <mxCell id="uFyeFTrfsKHOGS0_u5kz-11" value="Relatorio" style="swimlane;fontStyle=1;align=center;verticalAlign=top;childLayout=stackLayout;horizontal=1;startSize=26;horizontalStack=0;resizeParent=1;resizeParentMax=0;resizeLast=0;collapsible=1;marginBottom=0;whiteSpace=wrap;html=1;movable=1;resizable=1;rotatable=1;deletable=1;editable=1;locked=0;connectable=1;" vertex="1" parent="WIyWlLk6GJQsqaUBKTNV-1">
          <mxGeometry x="381" y="533" width="389" height="130" as="geometry">
            <mxRectangle x="332" y="335" width="95" height="26" as="alternateBounds" />
          </mxGeometry>
        </mxCell>
        <mxCell id="uFyeFTrfsKHOGS0_u5kz-12" value="- vendas : List&amp;lt;Venda&amp;gt;&lt;br&gt;&lt;div&gt;&lt;span style=&quot;background-color: initial;&quot;&gt;- dataInicial : Date&lt;/span&gt;&lt;/div&gt;&lt;div&gt;- dataFinal : Date&lt;br&gt;&lt;/div&gt;" style="text;strokeColor=none;fillColor=none;align=left;verticalAlign=top;spacingLeft=4;spacingRight=4;overflow=hidden;rotatable=1;points=[[0,0.5],[1,0.5]];portConstraint=eastwest;whiteSpace=wrap;html=1;movable=1;resizable=1;deletable=1;editable=1;locked=0;connectable=1;" vertex="1" parent="uFyeFTrfsKHOGS0_u5kz-11">
          <mxGeometry y="26" width="389" height="50" as="geometry" />
        </mxCell>
        <mxCell id="uFyeFTrfsKHOGS0_u5kz-13" value="" style="line;strokeWidth=1;fillColor=none;align=left;verticalAlign=middle;spacingTop=-1;spacingLeft=3;spacingRight=3;rotatable=1;labelPosition=right;points=[];portConstraint=eastwest;strokeColor=inherit;movable=1;resizable=1;deletable=1;editable=1;locked=0;connectable=1;" vertex="1" parent="uFyeFTrfsKHOGS0_u5kz-11">
          <mxGeometry y="76" width="389" height="8" as="geometry" />
        </mxCell>
        <mxCell id="uFyeFTrfsKHOGS0_u5kz-14" value="&lt;div&gt;+ gerarRelatorio(dataInicial: Date, dataFinal: Date): List&amp;lt;Venda&amp;gt;&lt;br&gt;&lt;/div&gt;&lt;div&gt;+ calcularTotalVendas(): float&lt;br&gt;&lt;/div&gt;" style="text;strokeColor=none;fillColor=none;align=left;verticalAlign=top;spacingLeft=4;spacingRight=4;overflow=hidden;rotatable=1;points=[[0,0.5],[1,0.5]];portConstraint=eastwest;whiteSpace=wrap;html=1;movable=1;resizable=1;deletable=1;editable=1;locked=0;connectable=1;" vertex="1" parent="uFyeFTrfsKHOGS0_u5kz-11">
          <mxGeometry y="84" width="389" height="46" as="geometry" />
        </mxCell>
        <mxCell id="uFyeFTrfsKHOGS0_u5kz-15" value="ItemView&amp;nbsp;" style="swimlane;fontStyle=1;align=center;verticalAlign=middle;childLayout=stackLayout;horizontal=1;startSize=26;horizontalStack=0;resizeParent=1;resizeParentMax=0;resizeLast=0;collapsible=1;marginBottom=0;whiteSpace=wrap;html=1;movable=1;resizable=1;rotatable=1;deletable=1;editable=1;locked=0;connectable=1;strokeColor=default;fontFamily=Helvetica;fontSize=18;fontColor=default;fillColor=default;" vertex="1" parent="WIyWlLk6GJQsqaUBKTNV-1">
          <mxGeometry x="723" y="62" width="389" height="140" as="geometry">
            <mxRectangle x="332" y="335" width="95" height="26" as="alternateBounds" />
          </mxGeometry>
        </mxCell>
        <mxCell id="uFyeFTrfsKHOGS0_u5kz-16" value="&lt;div style=&quot;font-size: 15px;&quot;&gt;- itemController : ItemController&lt;br style=&quot;font-size: 15px;&quot;&gt;&lt;/div&gt;" style="text;strokeColor=none;fillColor=none;align=left;verticalAlign=middle;spacingLeft=4;spacingRight=4;overflow=hidden;rotatable=1;points=[[0,0.5],[1,0.5]];portConstraint=eastwest;whiteSpace=wrap;html=1;movable=1;resizable=1;deletable=1;editable=1;locked=0;connectable=1;fontFamily=Helvetica;fontSize=15;fontColor=default;fontStyle=0;" vertex="1" parent="uFyeFTrfsKHOGS0_u5kz-15">
          <mxGeometry y="26" width="389" height="34" as="geometry" />
        </mxCell>
        <mxCell id="uFyeFTrfsKHOGS0_u5kz-17" value="" style="line;strokeWidth=1;fillColor=default;align=center;verticalAlign=middle;spacingTop=-1;spacingLeft=3;spacingRight=3;rotatable=1;labelPosition=right;points=[];portConstraint=eastwest;strokeColor=default;movable=1;resizable=1;deletable=1;editable=1;locked=0;connectable=1;fontFamily=Helvetica;fontSize=18;fontColor=default;fontStyle=1;" vertex="1" parent="uFyeFTrfsKHOGS0_u5kz-15">
          <mxGeometry y="60" width="389" height="8" as="geometry" />
        </mxCell>
        <mxCell id="uFyeFTrfsKHOGS0_u5kz-18" value="&lt;div style=&quot;font-size: 15px;&quot;&gt;+ exibirItens(): void&lt;br style=&quot;font-size: 15px;&quot;&gt;&lt;/div&gt;&lt;div style=&quot;font-size: 15px;&quot;&gt;+ atualizarItem(): void&lt;br style=&quot;font-size: 15px;&quot;&gt;&lt;/div&gt;&lt;div style=&quot;font-size: 15px;&quot;&gt;+ removerItem(): void&lt;br style=&quot;font-size: 15px;&quot;&gt;&lt;/div&gt;" style="text;strokeColor=none;fillColor=none;align=left;verticalAlign=middle;spacingLeft=4;spacingRight=4;overflow=hidden;rotatable=1;points=[[0,0.5],[1,0.5]];portConstraint=eastwest;whiteSpace=wrap;html=1;movable=1;resizable=1;deletable=1;editable=1;locked=0;connectable=1;fontFamily=Helvetica;fontSize=15;fontColor=default;fontStyle=0;" vertex="1" parent="uFyeFTrfsKHOGS0_u5kz-15">
          <mxGeometry y="68" width="389" height="72" as="geometry" />
        </mxCell>
        <mxCell id="uFyeFTrfsKHOGS0_u5kz-19" value="ItemController&amp;nbsp;" style="swimlane;fontStyle=1;align=center;verticalAlign=middle;childLayout=stackLayout;horizontal=1;startSize=26;horizontalStack=0;resizeParent=1;resizeParentMax=0;resizeLast=0;collapsible=1;marginBottom=0;whiteSpace=wrap;html=1;movable=1;resizable=1;rotatable=1;deletable=1;editable=1;locked=0;connectable=1;fontSize=18;" vertex="1" parent="WIyWlLk6GJQsqaUBKTNV-1">
          <mxGeometry x="89" y="62" width="469" height="147" as="geometry">
            <mxRectangle x="332" y="335" width="95" height="26" as="alternateBounds" />
          </mxGeometry>
        </mxCell>
        <mxCell id="uFyeFTrfsKHOGS0_u5kz-20" value="&lt;div style=&quot;font-size: 15px;&quot;&gt;- itemModel : Item&lt;br style=&quot;font-size: 15px;&quot;&gt;&lt;/div&gt;" style="text;strokeColor=none;fillColor=none;align=left;verticalAlign=middle;spacingLeft=4;spacingRight=4;overflow=hidden;rotatable=1;points=[[0,0.5],[1,0.5]];portConstraint=eastwest;whiteSpace=wrap;html=1;movable=1;resizable=1;deletable=1;editable=1;locked=0;connectable=1;fontSize=15;" vertex="1" parent="uFyeFTrfsKHOGS0_u5kz-19">
          <mxGeometry y="26" width="469" height="34" as="geometry" />
        </mxCell>
        <mxCell id="uFyeFTrfsKHOGS0_u5kz-21" value="" style="line;strokeWidth=1;fillColor=none;align=left;verticalAlign=middle;spacingTop=-1;spacingLeft=3;spacingRight=3;rotatable=1;labelPosition=right;points=[];portConstraint=eastwest;strokeColor=inherit;movable=1;resizable=1;deletable=1;editable=1;locked=0;connectable=1;" vertex="1" parent="uFyeFTrfsKHOGS0_u5kz-19">
          <mxGeometry y="60" width="469" height="8" as="geometry" />
        </mxCell>
        <mxCell id="uFyeFTrfsKHOGS0_u5kz-22" value="&lt;div style=&quot;font-size: 15px;&quot;&gt;+ adicionarItem(nome: String, preco: float, quantidade: int): void&lt;br style=&quot;font-size: 15px;&quot;&gt;&lt;/div&gt;&lt;div style=&quot;font-size: 15px;&quot;&gt;+ atualizarItem(nome: String, novaQuantidade: int): void&lt;br style=&quot;font-size: 15px;&quot;&gt;&lt;/div&gt;&lt;div style=&quot;font-size: 15px;&quot;&gt;+ listarItens(): List&amp;lt;Item&amp;gt;&lt;br style=&quot;font-size: 15px;&quot;&gt;&lt;/div&gt;" style="text;strokeColor=none;fillColor=none;align=left;verticalAlign=middle;spacingLeft=4;spacingRight=4;overflow=hidden;rotatable=1;points=[[0,0.5],[1,0.5]];portConstraint=eastwest;whiteSpace=wrap;html=1;movable=1;resizable=1;deletable=1;editable=1;locked=0;connectable=1;fontSize=15;" vertex="1" parent="uFyeFTrfsKHOGS0_u5kz-19">
          <mxGeometry y="68" width="469" height="79" as="geometry" />
        </mxCell>
      </root>
    </mxGraphModel>
  </diagram>
</mxfile>
